<svg width="320" height="67" viewBox="0 0 320 67" fill="none" xmlns="http://www.w3.org/2000/svg">
<path d="M47.9996 9.5L19.9024 9.50011V9.96131L0 29.8637V57.5H27.6364L47.539 37.5976H48L47.9996 9.5Z" fill="black"/>
<path d="M71.36 16.728V51H83.888C89.456 51 93.632 49.464 96.512 46.392C99.248 43.464 100.64 39.288 100.64 33.864C100.64 28.392 99.248 24.216 96.512 21.336C93.632 18.264 89.456 16.728 83.888 16.728H71.36ZM76.976 21.528H82.832C87.104 21.528 90.224 22.488 92.192 24.456C94.112 26.376 95.072 29.544 95.072 33.864C95.072 38.088 94.112 41.208 92.192 43.224C90.224 45.192 87.104 46.2 82.832 46.2H76.976V21.528ZM115.651 16.728L102.547 51H108.547L111.667 42.408H126.019L129.139 51H135.139L122.035 16.728H115.651ZM113.347 37.8L118.771 22.776H118.963L124.339 37.8H113.347ZM138.485 16.728V51H144.101V16.728H138.485ZM150.813 16.728V51H174.909V46.2H156.381V16.728H150.813ZM176.099 16.728L189.635 37.368V51H195.251V37.368L208.787 16.728H202.019L192.467 32.136L182.867 16.728H176.099ZM212.407 16.728V51H236.503V46.2H217.975V16.728H212.407ZM310.318 16.728L294.382 32.904V16.728H288.766V51H294.382V39.192L298.558 35.112L312.094 51H319.678L302.35 31.416L317.422 16.728H310.318Z" fill="black"/>
<path d="M292 35L215 35" stroke="black" stroke-width="5"/>
</svg>
