<svg width="237" height="67" viewBox="0 0 237 67" fill="none" xmlns="http://www.w3.org/2000/svg">
<path d="M47.9996 9.5L19.9024 9.50011V9.96131L0 29.8637V57.5H27.6364L47.539 37.5976H48L47.9996 9.5Z" fill="black"/>
<path d="M71.36 16.728V51H87.104C90.752 51 93.632 50.328 95.648 48.984C98 47.352 99.2 44.808 99.2 41.352C99.2 39.048 98.624 37.176 97.52 35.832C96.368 34.44 94.688 33.528 92.432 33.096C94.16 32.424 95.456 31.512 96.368 30.264C97.28 28.92 97.76 27.288 97.76 25.368C97.76 22.776 96.848 20.712 95.072 19.176C93.152 17.544 90.464 16.728 87.056 16.728H71.36ZM76.976 21.336H85.664C87.968 21.336 89.6 21.72 90.656 22.488C91.616 23.208 92.144 24.408 92.144 26.04C92.144 27.816 91.616 29.112 90.656 29.928C89.648 30.696 87.968 31.128 85.568 31.128H76.976V21.336ZM76.976 35.736H86.432C88.928 35.736 90.752 36.168 91.904 37.032C93.008 37.896 93.584 39.288 93.584 41.256C93.584 43.176 92.816 44.52 91.28 45.384C90.08 46.056 88.4 46.392 86.288 46.392H76.976V35.736ZM104.501 16.728V51H110.117V37.032H118.997C120.917 37.032 122.405 37.416 123.413 38.28C124.373 39.096 124.949 40.44 125.141 42.312L125.573 46.536C125.765 48.456 126.245 49.944 127.061 51H133.157C132.005 49.752 131.285 48.072 131.093 45.96L130.517 40.44C130.133 37.08 128.453 35.112 125.477 34.44V34.344C127.301 33.864 128.789 32.856 129.845 31.32C130.805 29.928 131.285 28.344 131.285 26.568C131.285 23.304 130.181 20.808 128.069 19.08C126.053 17.496 123.269 16.728 119.765 16.728H104.501ZM110.117 21.528H118.997C121.301 21.528 122.981 21.912 124.037 22.776C125.093 23.592 125.621 24.936 125.621 26.808C125.621 28.536 125.093 29.88 124.037 30.84C122.885 31.752 121.205 32.232 118.997 32.232H110.117V21.528ZM147.713 16.728L134.609 51H140.609L143.729 42.408H158.081L161.201 51H167.201L154.097 16.728H147.713ZM145.409 37.8L150.833 22.776H151.025L156.401 37.8H145.409ZM170.548 16.728V51H176.164V25.944H176.356L193.492 51H198.964V16.728H193.3V41.448H193.108L176.164 16.728H170.548ZM205.704 16.728V51H218.232C223.8 51 227.976 49.464 230.856 46.392C233.592 43.464 234.984 39.288 234.984 33.864C234.984 28.392 233.592 24.216 230.856 21.336C227.976 18.264 223.8 16.728 218.232 16.728H205.704ZM211.32 21.528H217.176C221.448 21.528 224.568 22.488 226.536 24.456C228.456 26.376 229.416 29.544 229.416 33.864C229.416 38.088 228.456 41.208 226.536 43.224C224.568 45.192 221.448 46.2 217.176 46.2H211.32V21.528Z" fill="black"/>
</svg>
