<svg width="199" height="60" viewBox="0 0 199 60" fill="none" xmlns="http://www.w3.org/2000/svg">
<path d="M0 60V0H199V29.1176L168 60H0Z" fill="#76FF03"/>
<path d="M58.4691 21.864V39H61.2771V27.192H61.3731L66.4131 39H68.8371L73.8771 27.192H73.9731V39H76.7811V21.864H73.4931L67.6851 35.304H67.5891L61.7571 21.864H58.4691ZM87.7568 21.528C85.1168 21.528 83.0528 22.368 81.5648 24.096C80.1248 25.728 79.4288 27.84 79.4288 30.456C79.4288 33.048 80.1248 35.16 81.5648 36.792C83.0528 38.472 85.1168 39.336 87.7568 39.336C90.3728 39.336 92.4368 38.496 93.9488 36.816C95.3888 35.208 96.1088 33.096 96.1088 30.456C96.1088 27.816 95.3888 25.68 93.9488 24.072C92.4368 22.368 90.3728 21.528 87.7568 21.528ZM87.7568 24C89.5328 24 90.9008 24.552 91.8608 25.704C92.7968 26.856 93.2768 28.44 93.2768 30.456C93.2768 32.472 92.7968 34.032 91.8608 35.16C90.9008 36.288 89.5328 36.864 87.7568 36.864C85.9808 36.864 84.5888 36.264 83.6288 35.088C82.6928 33.936 82.2368 32.4 82.2368 30.456C82.2368 28.488 82.6928 26.952 83.6288 25.8C84.6128 24.6 85.9808 24 87.7568 24ZM98.7581 21.864V39H101.566V32.016H106.006C106.966 32.016 107.71 32.208 108.214 32.64C108.694 33.048 108.982 33.72 109.078 34.656L109.294 36.768C109.39 37.728 109.63 38.472 110.038 39H113.086C112.51 38.376 112.15 37.536 112.054 36.48L111.766 33.72C111.574 32.04 110.734 31.056 109.246 30.72V30.672C110.158 30.432 110.902 29.928 111.43 29.16C111.91 28.464 112.15 27.672 112.15 26.784C112.15 25.152 111.598 23.904 110.542 23.04C109.534 22.248 108.142 21.864 106.39 21.864H98.7581ZM101.566 24.264H106.006C107.158 24.264 107.998 24.456 108.526 24.888C109.054 25.296 109.318 25.968 109.318 26.904C109.318 27.768 109.054 28.44 108.526 28.92C107.95 29.376 107.11 29.616 106.006 29.616H101.566V24.264ZM115.493 21.864V39H128.261V36.6H118.301V31.416H127.277V29.016H118.301V24.264H127.853V21.864H115.493Z" fill="#212121"/>
</svg>
